<svg width="22" height="22" viewBox="0 0 22 22" fill="none" xmlns="http://www.w3.org/2000/svg">
<path d="M20.9733 14.8203L21.0262 7.32052C21.0505 3.86935 18.2715 1.05095 14.8204 1.02664L7.32056 0.973792C3.8694 0.949475 1.051 3.72844 1.02668 7.1796L0.973836 14.6794C0.94952 18.1306 3.72848 20.949 7.17965 20.9733L14.6795 21.0261C18.1306 21.0505 20.949 18.2715 20.9733 14.8203ZM7.19286 19.0983C4.78042 19.0813 2.83179 17.1051 2.84879 14.6926L2.90163 7.19281C2.91863 4.78037 4.89491 2.83175 7.30735 2.84875L14.8072 2.90159C17.2196 2.91859 19.1682 4.89487 19.1512 7.30731L19.0984 14.8071C19.0814 17.2196 17.1051 19.1682 14.6927 19.1512L7.19286 19.0983Z" fill="black"/>
<path d="M10.9252 6.00052C8.16422 6.04171 5.95912 8.31362 6.00032 11.0746C6.04152 13.8355 8.31342 16.0406 11.0744 15.9994C13.8353 15.9582 16.0404 13.6863 15.9992 10.9254C15.958 8.16442 13.6861 5.95932 10.9252 6.00052ZM11.0464 14.1246C9.32408 14.1503 7.90081 12.7689 7.87511 11.0466C7.84939 9.32303 9.23083 7.90101 10.9531 7.87531C12.6754 7.84961 14.0987 9.22978 14.1244 10.9533C14.1501 12.6756 12.7687 14.0989 11.0464 14.1246Z" fill="black"/>
<path d="M16.3039 6.21152C16.6718 6.20603 16.9656 5.90333 16.9602 5.53541C16.9547 5.16749 16.652 4.87369 16.284 4.87918C15.9161 4.88467 15.6223 5.18737 15.6278 5.55529C15.6333 5.92321 15.936 6.21701 16.3039 6.21152Z" fill="black"/>
</svg>
