<svg width="21" height="20" viewBox="0 0 21 20" fill="none" xmlns="http://www.w3.org/2000/svg">
<path d="M10.5291 0.499548C5.00412 0.482633 0.515791 4.83059 0.499323 10.21C0.486144 14.5146 3.33995 18.1738 7.3085 19.473C7.80821 19.5662 7.99247 19.2652 7.99326 19.0067C7.99397 18.7754 7.98751 18.1624 7.98583 17.3504C5.20238 17.9292 4.62151 16.0332 4.62151 16.0332C4.16996 14.9075 3.51338 14.6048 3.51338 14.6048C2.6094 13.9982 3.58519 14.0136 3.58519 14.0136C4.58915 14.0844 5.11378 15.022 5.11378 15.022C6.00088 16.5141 7.45136 16.0881 8.02378 15.8412C8.11571 15.2112 8.37453 14.7833 8.6611 14.5405C6.44103 14.29 4.10943 13.4452 4.12086 9.71301C4.12412 8.64986 4.51427 7.78201 5.15802 7.10247C5.04628 6.85596 4.71181 5.86447 5.25342 4.52457C5.25342 4.52457 6.09171 4.2661 8.00035 5.53171C8.80101 5.31773 9.65133 5.21294 10.5013 5.21059C11.3513 5.21815 12.201 5.32814 13.0003 5.54702C14.9042 4.29308 15.7409 4.55668 15.7409 4.55668C16.2743 5.89986 15.9337 6.88929 15.833 7.13515C16.4684 7.81861 16.8532 8.68882 16.85 9.75198C16.8385 13.4941 14.4985 14.3105 12.2728 14.5433C12.6219 14.8368 12.9451 15.435 12.9423 16.3478C12.9383 17.6514 12.9226 18.6988 12.9216 19.0152C12.9208 19.2704 13.0949 19.5758 13.6077 19.4799C17.6124 18.2134 20.4861 14.5692 20.4992 10.2712C20.5157 4.89182 16.0516 0.516454 10.5291 0.499548Z" fill="#212121"/>
</svg>
